<svg width="150" height="50" viewBox="0 0 150 50" fill="none" xmlns="http://www.w3.org/2000/svg">
<path d="M0 11.7419C0 10.1636 0.267932 8.71383 0.805991 7.3926C1.34295 6.07136 2.09624 4.92876 3.06804 3.96588C4.03874 3.003 5.19063 2.25579 6.5226 1.72207C7.85457 1.18944 9.31612 0.922574 10.9072 0.922574C12.4984 0.922574 13.9237 1.18944 15.2458 1.72207C16.5678 2.25579 17.7142 3.003 18.6849 3.96588C19.6556 4.92985 20.4089 6.07136 20.947 7.3926C21.4839 8.71383 21.753 10.1636 21.753 11.7419C21.753 13.3202 21.4839 14.7384 20.947 16.0607C20.41 17.3819 19.6556 18.53 18.6849 19.5027C17.7131 20.4764 16.5667 21.2291 15.2458 21.7617C13.9237 22.2943 12.4775 22.5612 10.9072 22.5612C9.33698 22.5612 7.85567 22.2943 6.5226 21.7617C5.18953 21.2291 4.03874 20.4764 3.06804 19.5027C2.09733 18.53 1.34295 17.3819 0.805991 16.0607C0.26903 14.7395 0 13.2995 0 11.7419ZM4.15184 11.7419C4.15184 13.0947 4.44064 14.2874 5.01933 15.3222C5.59692 16.357 6.39852 17.1619 7.42083 17.7348C8.44314 18.3089 9.60491 18.5953 10.9072 18.5953C12.2096 18.5953 13.3603 18.3089 14.3618 17.7348C15.3632 17.1608 16.1539 16.357 16.7326 15.3222C17.3101 14.2874 17.6 13.0936 17.6 11.7419C17.6 10.3902 17.3101 9.16478 16.7326 8.13001C16.1539 7.09524 15.3643 6.29139 14.3618 5.71736C13.3592 5.14443 12.2085 4.85687 10.9072 4.85687C9.60601 4.85687 8.44424 5.14879 7.42083 5.73261C6.39852 6.31644 5.59801 7.12138 5.01933 8.14526C4.44064 9.17022 4.15184 10.3684 4.15184 11.7419Z" fill="white"/>
<path d="M24.2313 28.0313V7.16168H27.2675L28.2899 10.7267H27.9802V18.2577H28.2899V28.0313H24.2302H24.2313ZM32.3495 22.5601C31.0065 22.5601 29.8392 22.2475 28.8477 21.6223C27.8561 20.9982 27.0864 20.1006 26.5395 18.933C25.9916 17.7653 25.7181 16.3515 25.7181 14.6915C25.7181 13.0315 25.9971 11.6798 26.5549 10.5111C27.1127 9.34341 27.8923 8.43608 28.8938 7.79126C29.8952 7.14643 31.057 6.82293 32.3802 6.82293C33.7034 6.82293 34.9772 7.15624 36.0214 7.82175C37.0646 8.48727 37.8805 9.40985 38.4691 10.5884C39.0576 11.7669 39.3519 13.1339 39.3519 14.6915C39.3519 16.2491 39.0576 17.5911 38.4691 18.7794C37.8805 19.9678 37.0591 20.8958 36.0061 21.5613C34.953 22.2268 33.733 22.5601 32.3495 22.5601ZM31.6675 18.8415C32.6997 18.8415 33.5519 18.457 34.2239 17.6891C34.8948 16.9212 35.2308 15.9213 35.2308 14.6926C35.2308 13.464 34.8948 12.4597 34.2239 11.6809C33.553 10.9021 32.7008 10.5132 31.6675 10.5132C30.6343 10.5132 29.7778 10.8977 29.0958 11.6656C28.4139 12.4336 28.0735 13.4433 28.0735 14.6937C28.0735 15.9441 28.4139 16.9223 29.0958 17.6902C29.7778 18.4581 30.6343 18.8426 31.6675 18.8426V18.8415Z" fill="white"/>
<path d="M48.5549 22.4991C47.0473 22.4991 45.7252 22.1767 44.5887 21.5308C43.4521 20.8849 42.5748 19.9786 41.9544 18.8099C41.335 17.6423 41.0254 16.2698 41.0254 14.6915C41.0254 13.1132 41.335 11.7669 41.9544 10.5884C42.5737 9.40985 43.4521 8.48836 44.5887 7.82175C45.7241 7.15624 47.0473 6.82293 48.5549 6.82293C50.0626 6.82293 51.411 7.16059 52.5366 7.837C53.6621 8.51342 54.5351 9.44035 55.1544 10.6189C55.7737 11.7974 56.0834 13.1448 56.0834 14.661C56.0834 14.8865 56.0779 15.1065 56.068 15.3222C56.057 15.5368 56.0318 15.7176 55.99 15.8603H44.3394V12.8486H52.9231L52.3038 14.2929C52.3038 13.0228 51.9985 11.9881 51.3902 11.1886C50.7807 10.3891 49.8353 9.98932 48.5549 9.98932C47.4393 9.98932 46.541 10.3324 45.8591 11.0197C45.1772 11.7059 44.8368 12.6231 44.8368 13.77V15.3995C44.8368 16.6086 45.1827 17.5562 45.8745 18.2424C46.5663 18.9297 47.5117 19.2728 48.7098 19.2728C49.7628 19.2728 50.5897 19.0582 51.1892 18.6269C51.7877 18.1967 52.3049 17.664 52.7386 17.029L55.5585 18.6269C54.8766 19.8773 53.952 20.8359 52.7847 21.5003C51.6175 22.1669 50.2075 22.4991 48.5549 22.4991Z" fill="white"/>
<path d="M67.6725 6.82402C68.7047 6.82402 69.537 6.9983 70.1674 7.34685C70.7976 7.6954 71.272 8.16704 71.5927 8.76067C71.9122 9.35539 72.1241 10.0264 72.2284 10.7736C72.3317 11.5219 72.3833 12.2952 72.3833 13.0936V22.192H68.3237V13.0631C68.3237 12.1416 68.1425 11.5262 67.7812 11.2191C67.42 10.9119 66.9599 10.7583 66.402 10.7583C65.8859 10.7583 65.3589 10.8563 64.8219 11.0502C64.2849 11.2452 63.7842 11.5219 63.3186 11.8802C62.8541 12.2386 62.4555 12.6438 62.1261 13.0947L61.599 11.0045H62.6213V22.192H58.5617V7.16168H61.5979L62.4347 10.0514L61.1334 9.98932C61.6704 9.375 62.2853 8.83256 62.9771 8.36092C63.6689 7.88929 64.4068 7.51568 65.1919 7.23902C65.9771 6.96235 66.8028 6.82402 67.6714 6.82402H67.6725Z" fill="white"/>
<path d="M83.7824 22.192V1.26023H91.1572C92.7889 1.26023 94.1209 1.47045 95.1542 1.88981C96.1864 2.31025 96.9517 2.93982 97.447 3.77962C97.9422 4.62051 98.1904 5.67488 98.1904 6.94601C98.1904 7.99058 97.9521 8.90336 97.4777 9.68107C97.0022 10.4599 96.3621 11.0698 95.5561 11.5099C94.7501 11.951 93.8617 12.171 92.891 12.171L93.0151 10.9729C94.2548 10.9729 95.2969 11.1984 96.1446 11.6493C96.9913 12.1002 97.6424 12.7255 98.097 13.5239C98.5516 14.3234 98.7789 15.2557 98.7789 16.321C98.7789 18.2479 98.1794 19.7074 96.9814 20.7008C95.7834 21.6953 94.0275 22.192 91.7139 22.192H83.7813H83.7824ZM87.841 3.44196V19.7935L86.3531 18.3492H91.7139C92.622 18.3492 93.3401 18.1182 93.8672 17.6575C94.3943 17.1968 94.6578 16.577 94.6578 15.7982C94.6578 14.9584 94.4042 14.3223 93.8991 13.892C93.3929 13.4618 92.6857 13.2461 91.7765 13.2461H86.3541V9.71157H91.2505C92.1597 9.71157 92.8515 9.52204 93.327 9.14299C93.8024 8.76394 94.0396 8.19536 94.0396 7.43725C94.0396 6.74124 93.8024 6.17702 93.327 5.74677C92.8515 5.31652 92.1597 5.10195 91.2505 5.10195H86.4782L87.8421 3.44196H87.841Z" fill="white"/>
<path d="M104.821 7.16169L105.843 11.3106V22.1909H101.783V7.16169H104.821ZM105.007 13.3703L104.264 13.0326V9.95883L104.543 9.62117C104.77 9.25192 105.116 8.85326 105.58 8.42193C106.045 7.99168 106.582 7.61807 107.191 7.30002C107.801 6.98305 108.435 6.82403 109.097 6.82403C109.427 6.82403 109.727 6.84472 109.995 6.88502C110.263 6.92641 110.469 6.9983 110.614 7.0996V10.7572H109.622C108.28 10.7572 107.246 10.9675 106.524 11.3879C105.8 11.8083 105.295 12.4684 105.005 13.3703H105.007Z" fill="white"/>
<path d="M117.587 22.6222C116.471 22.6222 115.49 22.412 114.643 21.9926C113.795 21.5733 113.145 20.9786 112.691 20.2096C112.236 19.4417 112.009 18.5452 112.009 17.5203C112.009 16.4953 112.251 15.6043 112.737 14.8462C113.222 14.0881 113.887 13.4988 114.735 13.0795C115.582 12.6601 116.543 12.4488 117.617 12.4488C119.084 12.4488 120.276 12.7821 121.195 13.4476C122.114 14.1142 122.739 15.0619 123.07 16.2905L121.18 16.0444V12.4172C121.18 11.8443 120.973 11.3313 120.559 10.8803C120.146 10.4294 119.476 10.2039 118.545 10.2039C117.967 10.2039 117.327 10.2703 116.624 10.4032C115.921 10.5361 115.188 10.7877 114.423 11.1559L113.215 8.20517C114.104 7.77492 115.048 7.43726 116.051 7.1911C117.052 6.94493 118.059 6.82185 119.071 6.82185C120.455 6.82185 121.601 7.06801 122.511 7.55926C123.42 8.0505 124.102 8.72691 124.556 9.5874C125.011 10.4479 125.238 11.4315 125.238 12.5381V22.1887H122.015L121.148 19.3306L123.07 18.7772C122.718 19.9863 122.073 20.9285 121.133 21.6049C120.193 22.2813 119.01 22.6189 117.585 22.6189L117.587 22.6222ZM118.703 19.5484C119.447 19.5484 120.045 19.3643 120.5 18.9951C120.955 18.6258 121.182 18.1346 121.182 17.5203C121.182 16.9059 120.955 16.3886 120.5 16.0291C120.045 15.6707 119.447 15.491 118.703 15.491C117.958 15.491 117.36 15.6707 116.906 16.0291C116.451 16.3875 116.224 16.8852 116.224 17.5203C116.224 18.1553 116.451 18.6269 116.906 18.9951C117.36 19.3643 117.959 19.5484 118.703 19.5484Z" fill="white"/>
<path d="M128.153 2.48998C128.153 1.75257 128.374 1.1524 128.819 0.691661C129.263 0.230917 129.858 0 130.601 0C131.345 0 131.939 0.230917 132.382 0.691661C132.826 1.1524 133.049 1.75257 133.049 2.48998C133.049 3.18709 132.827 3.76111 132.382 4.21096C131.938 4.6619 131.345 4.88737 130.601 4.88737C129.858 4.88737 129.264 4.6619 128.819 4.21096C128.376 3.76111 128.153 3.18709 128.153 2.48998ZM132.646 22.192H128.586V7.16169H132.646V22.192Z" fill="white"/>
<path d="M145.288 6.82403C146.321 6.82403 147.153 6.9983 147.783 7.34686C148.412 7.69541 148.888 8.16705 149.208 8.76068C149.528 9.3554 149.74 10.0264 149.844 10.7736C149.947 11.5219 149.999 12.2952 149.999 13.0936V22.192H145.939V13.0631C145.939 12.1416 145.758 11.5262 145.397 11.2191C145.036 10.9119 144.575 10.7583 144.018 10.7583C143.502 10.7583 142.974 10.8564 142.438 11.0502C141.901 11.2452 141.4 11.5219 140.935 11.8802C140.471 12.2386 140.072 12.6438 139.742 13.0947L139.216 11.0045H140.238V22.192H136.178V7.16169H139.215L140.051 10.0514L138.75 9.98933C139.287 9.375 139.902 8.83257 140.594 8.36093C141.286 7.88929 142.025 7.51569 142.809 7.23902C143.594 6.96236 144.421 6.82403 145.288 6.82403Z" fill="white"/>
<path d="M38.4811 39.6109H42.4474C43.6454 39.6109 44.5952 39.3038 45.298 38.6884C45.9997 38.074 46.3511 37.2026 46.3511 36.0764C46.3511 34.888 46.0052 33.9916 45.3134 33.3871C44.6205 32.7826 43.6762 32.4797 42.4781 32.4797H38.4504L39.3179 31.5888V49.5698H35.2583V28.638H42.8493C44.3987 28.638 45.7416 28.9506 46.8771 29.5759C48.0125 30.2011 48.9008 31.067 49.5421 32.1726C50.1823 33.2792 50.5029 34.5809 50.5029 36.0764C50.5029 37.5719 50.1823 38.8474 49.5421 39.9649C48.9019 41.0814 48.0081 41.9473 46.8617 42.5627C45.7153 43.1771 44.3778 43.4842 42.8493 43.4842H38.48V39.612L38.4811 39.6109Z" fill="white"/>
<path d="M56.3908 49.7233C55.7089 49.7233 55.0841 49.5796 54.5164 49.2931C53.9476 49.0066 53.4941 48.5611 53.1526 47.9555C52.8122 47.351 52.6409 46.5678 52.6409 45.6039V28.638H56.6686V44.1911C56.6686 44.9089 56.8125 45.374 57.1024 45.5897C57.3912 45.8043 57.7426 45.9121 58.1554 45.9121V49.5088C57.9281 49.5905 57.6547 49.6471 57.3341 49.6776C57.0134 49.7081 56.6994 49.7233 56.3886 49.7233H56.3908Z" fill="white"/>
<path d="M65.439 50C64.3234 50 63.3417 49.7898 62.4951 49.3704C61.6473 48.9511 60.9973 48.3564 60.5427 47.5874C60.0881 46.8195 59.8608 45.923 59.8608 44.898C59.8608 43.8731 60.1034 42.9821 60.5888 42.224C61.0741 41.4659 61.7396 40.8766 62.5873 40.4573C63.4339 40.0379 64.3947 39.8266 65.4687 39.8266C66.9357 39.8266 68.1282 40.1599 69.0473 40.8254C69.9664 41.492 70.5912 42.4397 70.9217 43.6683L69.0319 43.4221V39.795C69.0319 39.2221 68.8255 38.709 68.4126 38.2581C67.9986 37.8072 67.3277 37.5817 66.3987 37.5817C65.82 37.5817 65.1799 37.6481 64.4771 37.781C63.7743 37.9139 63.0408 38.1655 62.2765 38.5337L61.0687 35.583C61.957 35.1527 62.9014 34.815 63.9039 34.5689C64.9053 34.3227 65.9123 34.1996 66.9247 34.1996C68.3083 34.1996 69.4547 34.4458 70.3639 34.937C71.2731 35.4283 71.9539 36.1047 72.4085 36.9652C72.8631 37.8257 73.0904 38.8092 73.0904 39.9159V49.5665H69.8676L69.0001 46.7083L70.9217 46.155C70.5703 47.3641 69.9247 48.3062 68.9847 48.9827C68.0448 49.6591 66.8621 49.9967 65.4368 49.9967L65.439 50ZM66.5536 46.9262C67.297 46.9262 67.8965 46.7421 68.3511 46.3729C68.8057 46.0036 69.033 45.5124 69.033 44.898C69.033 44.2837 68.8057 43.7663 68.3511 43.4069C67.8965 43.0485 67.2981 42.8688 66.5536 42.8688C65.8091 42.8688 65.2106 43.0485 64.756 43.4069C64.3014 43.7652 64.0741 44.263 64.0741 44.898C64.0741 45.5331 64.3014 46.0047 64.756 46.3729C65.2106 46.7421 65.8091 46.9262 66.5536 46.9262Z" fill="white"/>
<path d="M75.3843 38.2592V34.5406H85.1133V38.2592H75.3843ZM82.759 49.8464C81.2096 49.8464 79.9853 49.4423 79.0871 48.6319C78.1888 47.8226 77.7386 46.5265 77.7386 44.7434V34.7236L77.6771 34.5395L78.5139 31.0049H81.7982V44.0986C81.7982 44.7543 81.9574 45.2314 82.2781 45.5276C82.5976 45.825 83.0061 45.9731 83.5024 45.9731C83.833 45.9731 84.1316 45.9481 84.4007 45.8969C84.6686 45.8457 84.9069 45.789 85.1133 45.728V49.4783C84.7828 49.6013 84.4314 49.6928 84.0603 49.7549C83.688 49.8159 83.2543 49.8475 82.759 49.8475V49.8464Z" fill="white"/>
<path d="M96.2072 38.5664H87.2524V34.8782H96.2072V38.5664ZM89.3903 49.5698V33.4023C89.3903 32.2957 89.5913 31.3578 89.9943 30.5899C90.3973 29.822 90.9595 29.2426 91.6831 28.8537C92.4057 28.4648 93.2633 28.2699 94.2548 28.2699C94.7501 28.2699 95.1948 28.3004 95.5868 28.3625C95.9788 28.4235 96.2995 28.4855 96.5476 28.5465V32.2347C96.3412 32.1933 96.1293 32.153 95.9118 32.1116C95.6955 32.0713 95.4419 32.0506 95.1531 32.0506C94.637 32.0506 94.223 32.1998 93.9133 32.4961C93.6037 32.7934 93.4488 33.2803 93.4488 33.9557V49.5698H89.3892H89.3903Z" fill="white"/>
<path d="M105.533 49.939C103.963 49.939 102.584 49.6057 101.397 48.9402C100.209 48.2747 99.2841 47.3521 98.623 46.1735C97.962 44.9961 97.6314 43.628 97.6314 42.0704C97.6314 40.5128 97.962 39.1458 98.623 37.9673C99.2841 36.7887 100.209 35.8672 101.397 35.2006C102.584 34.5351 103.963 34.2018 105.533 34.2018C107.103 34.2018 108.482 34.5351 109.67 35.2006C110.858 35.8662 111.781 36.7887 112.443 37.9673C113.104 39.1458 113.435 40.5128 113.435 42.0704C113.435 43.628 113.104 44.9961 112.443 46.1735C111.782 47.3521 110.858 48.2747 109.67 48.9402C108.482 49.6057 107.102 49.939 105.533 49.939ZM105.533 46.0352C106.649 46.0352 107.558 45.6714 108.26 44.9438C108.961 44.2173 109.313 43.2588 109.313 42.0704C109.313 40.8821 108.961 39.9192 108.26 39.1807C107.557 38.4433 106.649 38.074 105.533 38.074C104.418 38.074 103.514 38.4378 102.822 39.1654C102.13 39.893 101.784 40.8505 101.784 42.0388C101.784 43.2272 102.13 44.1901 102.822 44.9286C103.514 45.666 104.418 46.0352 105.533 46.0352Z" fill="white"/>
<path d="M119.043 34.5395L120.065 38.6884V49.5687H116.006V34.5384H119.042L119.043 34.5395ZM119.23 40.7481L118.486 40.4104V37.3366L118.765 36.999C118.992 36.6297 119.338 36.231 119.803 35.7997C120.267 35.3695 120.804 34.9959 121.414 34.6778C122.023 34.3608 122.658 34.2018 123.319 34.2018C123.649 34.2018 123.949 34.2225 124.217 34.2628C124.485 34.3042 124.691 34.3761 124.836 34.4774V38.135H123.845C122.502 38.135 121.469 38.3452 120.746 38.7657C120.022 39.1861 119.517 39.8462 119.227 40.7481H119.23Z" fill="white"/>
<path d="M127.161 49.5698V34.5395H130.197L131.034 37.4292L129.733 37.3671C130.27 36.7528 130.858 36.2104 131.5 35.7387C132.14 35.2671 132.837 34.8935 133.591 34.6168C134.345 34.3401 135.135 34.2018 135.962 34.2018C136.994 34.2018 137.821 34.3761 138.441 34.7246C139.06 35.0732 139.52 35.5448 139.82 36.1385C140.118 36.7332 140.326 37.4042 140.439 38.1514C140.552 38.8997 140.609 39.673 140.609 40.4714V49.5698H136.55V40.4409C136.55 39.5194 136.364 38.904 135.992 38.5969C135.62 38.2897 135.176 38.1361 134.66 38.1361C133.916 38.1361 133.193 38.3561 132.491 38.7973C131.788 39.2384 131.2 39.7961 130.725 40.4725L130.198 38.3823H131.221V49.5698H127.161ZM145.907 49.5698V40.4409C145.907 39.5194 145.726 38.904 145.365 38.5969C145.004 38.2897 144.564 38.1361 144.048 38.1361C143.305 38.1361 142.581 38.3561 141.88 38.7973C141.177 39.2384 140.588 39.7961 140.114 40.4725L139.092 37.3682C139.629 36.7539 140.223 36.2114 140.874 35.7398C141.524 35.2682 142.227 34.8946 142.981 34.6179C143.734 34.3412 144.525 34.2029 145.352 34.2029C146.363 34.2029 147.18 34.3772 147.799 34.7257C148.419 35.0743 148.883 35.5459 149.194 36.1396C149.504 36.7343 149.716 37.4052 149.83 38.1524C149.943 38.9007 150 39.6741 150 40.4725V49.5708H145.91L145.907 49.5698Z" fill="white"/>
</svg>
