<svg width="15" height="10" viewBox="0 0 15 10" fill="none" xmlns="http://www.w3.org/2000/svg">
<g id="Eye Icon">
<path d="M7.5 0.237869C3.08868 0.237869 0 5.09091 0 5.09091C0 5.09091 2.24992 9.94395 7.5 9.94395C12.7939 9.94395 15 5.09091 15 5.09091C15 5.09091 11.956 0.237869 7.5 0.237869ZM7.5 8.17875C5.77948 8.17875 4.41216 6.81143 4.41216 5.09091C4.41216 3.37039 5.77948 2.00307 7.5 2.00307C9.22052 2.00307 10.5878 3.37039 10.5878 5.09091C10.5878 6.81143 9.22052 8.17875 7.5 8.17875Z" fill="white"/>
<path d="M8.82347 5.09091C8.82347 5.82213 8.23121 6.41439 7.49999 6.41439C6.76878 6.41439 6.17651 5.82213 6.17651 5.09091C6.17651 4.35969 6.76878 3.76743 7.49999 3.76743C8.23121 3.76743 8.82347 4.35969 8.82347 5.09091Z" fill="white"/>
</g>
</svg>
